HIERARCHY
ROOT Hips
{
    OFFSET   0.000000   0.000000   0.000000
    CHANNELS 6 Xposition Yposition Zposition Zrotation Xrotation Yrotation
    JOINT Chest
    {
        OFFSET   0.000000   8.007230   0.000000
        CHANNELS 3 Zrotation Xrotation Yrotation
        JOINT Chest2
        {
            OFFSET   0.000000  22.077100   0.000000
            CHANNELS 3 Zrotation Xrotation Yrotation
            JOINT Neck
            {
                OFFSET   0.000000  23.255100   0.000000
                CHANNELS 3 Zrotation Xrotation Yrotation
                JOINT Head
                {
                    OFFSET   0.000000  14.370100   1.956600
                    CHANNELS 3 Zrotation Xrotation Yrotation
                    End Site
                    {
                        OFFSET   0.000000  19.566000   0.000000
                    }
                }
            }
            JOINT LeftCollar
            {
                OFFSET   3.911900  19.017000  -0.467063
                CHANNELS 3 Zrotation Xrotation Yrotation
                JOINT LeftShoulder
                {
                    OFFSET  10.383700   0.000000   0.000000
                    CHANNELS 3 Zrotation Xrotation Yrotation
                    JOINT LeftElbow
                    {
                        OFFSET  26.662100   0.001193   0.000980
                        CHANNELS 3 Zrotation Xrotation Yrotation
                        JOINT LeftWrist
                        {
                            OFFSET  28.869000  -0.000059  -0.000082
                            CHANNELS 3 Zrotation Xrotation Yrotation
                            JOINT LeftFinger0
                            {
                                OFFSET   2.044650  -2.323450   3.252850
                                CHANNELS 3 Zrotation Xrotation Yrotation
                                JOINT LeftFinger01
                                {
                                    OFFSET   3.088130   0.000000   0.000000
                                    CHANNELS 3 Zrotation Xrotation Yrotation
                                    JOINT LeftFinger02
                                    {
                                        OFFSET   2.639460   0.000000   0.000000
                                        CHANNELS 3 Zrotation Xrotation Yrotation
                                        End Site
                                        {
                                            OFFSET   2.582190   0.000000   0.000000
                                        }
                                    }
                                }
                            }
                            JOINT LeftFinger1
                            {
                                OFFSET   8.364480   0.000000   3.252850
                                CHANNELS 3 Zrotation Xrotation Yrotation
                                JOINT LeftFinger11
                                {
                                    OFFSET   4.646930   0.000000   0.000000
                                    CHANNELS 3 Zrotation Xrotation Yrotation
                                    JOINT LeftFinger12
                                    {
                                        OFFSET   2.323470   0.000000   0.000000
                                        CHANNELS 3 Zrotation Xrotation Yrotation
                                        End Site
                                        {
                                            OFFSET   2.273050   0.000000   0.000000
                                        }
                                    }
                                }
                            }
                            JOINT LeftFinger2
                            {
                                OFFSET   8.364490   0.000016   1.078090
                                CHANNELS 3 Zrotation Xrotation Yrotation
                                JOINT LeftFinger21
                                {
                                    OFFSET   5.111610   0.000000   0.000000
                                    CHANNELS 3 Zrotation Xrotation Yrotation
                                    JOINT LeftFinger22
                                    {
                                        OFFSET   2.788150   0.000016   0.000000
                                        CHANNELS 3 Zrotation Xrotation Yrotation
                                        End Site
                                        {
                                            OFFSET   2.727660   0.000000   0.000000
                                        }
                                    }
                                }
                            }
                            JOINT LeftFinger3
                            {
                                OFFSET   7.899780   0.000015  -1.078090
                                CHANNELS 3 Zrotation Xrotation Yrotation
                                JOINT LeftFinger31
                                {
                                    OFFSET   4.646930   0.000000   0.000000
                                    CHANNELS 3 Zrotation Xrotation Yrotation
                                    JOINT LeftFinger32
                                    {
                                        OFFSET   2.323470   0.000000   0.000000
                                        CHANNELS 3 Zrotation Xrotation Yrotation
                                        End Site
                                        {
                                            OFFSET   2.273050   0.000000   0.000000
                                        }
                                    }
                                }
                            }
                            JOINT LeftFinger4
                            {
                                OFFSET   7.435090   0.000000  -3.252850
                                CHANNELS 3 Zrotation Xrotation Yrotation
                                JOINT LeftFinger41
                                {
                                    OFFSET   3.717550   0.000000   0.000000
                                    CHANNELS 3 Zrotation Xrotation Yrotation
                                    JOINT LeftFinger42
                                    {
                                        OFFSET   1.858770   0.000000   0.000000
                                        CHANNELS 3 Zrotation Xrotation Yrotation
                                        End Site
                                        {
                                            OFFSET   1.818440   0.000000   0.000000
                                        }
                                    }
                                }
                            }
                        }
                    }
                }
            }
            JOINT RightCollar
            {
                OFFSET  -3.911910  19.017000  -0.467062
                CHANNELS 3 Zrotation Xrotation Yrotation
                JOINT RightShoulder
                {
                    OFFSET -10.383700   0.000014   0.000000
                    CHANNELS 3 Zrotation Xrotation Yrotation
                    JOINT RightElbow
                    {
                        OFFSET -26.662100   0.001225   0.001091
                        CHANNELS 3 Zrotation Xrotation Yrotation
                        JOINT RightWrist
                        {
                            OFFSET -28.869000  -0.000020  -0.000085
                            CHANNELS 3 Zrotation Xrotation Yrotation
                            JOINT RightFinger0
                            {
                                OFFSET  -2.044650  -2.323490   3.252850
                                CHANNELS 3 Zrotation Xrotation Yrotation
                                JOINT RightFinger01
                                {
                                    OFFSET  -3.088130   0.000000   0.000000
                                    CHANNELS 3 Zrotation Xrotation Yrotation
                                    JOINT RightFinger02
                                    {
                                        OFFSET  -2.639460   0.000000   0.000000
                                        CHANNELS 3 Zrotation Xrotation Yrotation
                                        End Site
                                        {
                                            OFFSET  -2.582190   0.000000   0.000000
                                        }
                                    }
                                }
                            }
                            JOINT RightFinger1
                            {
                                OFFSET  -8.364480   0.000000   3.252850
                                CHANNELS 3 Zrotation Xrotation Yrotation
                                JOINT RightFinger11
                                {
                                    OFFSET  -4.646930   0.000000   0.000000
                                    CHANNELS 3 Zrotation Xrotation Yrotation
                                    JOINT RightFinger12
                                    {
                                        OFFSET  -2.323470   0.000000   0.000000
                                        CHANNELS 3 Zrotation Xrotation Yrotation
                                        End Site
                                        {
                                            OFFSET  -2.273050   0.000000   0.000000
                                        }
                                    }
                                }
                            }
                            JOINT RightFinger2
                            {
                                OFFSET  -8.364480   0.000000   1.078090
                                CHANNELS 3 Zrotation Xrotation Yrotation
                                JOINT RightFinger21
                                {
                                    OFFSET  -5.111620   0.000000   0.000000
                                    CHANNELS 3 Zrotation Xrotation Yrotation
                                    JOINT RightFinger22
                                    {
                                        OFFSET  -2.788160   0.000000   0.000000
                                        CHANNELS 3 Zrotation Xrotation Yrotation
                                        End Site
                                        {
                                            OFFSET  -2.727660   0.000000   0.000000
                                        }
                                    }
                                }
                            }
                            JOINT RightFinger3
                            {
                                OFFSET  -7.899780   0.000000  -1.078090
                                CHANNELS 3 Zrotation Xrotation Yrotation
                                JOINT RightFinger31
                                {
                                    OFFSET  -4.646930   0.000000   0.000000
                                    CHANNELS 3 Zrotation Xrotation Yrotation
                                    JOINT RightFinger32
                                    {
                                        OFFSET  -2.323470   0.000000   0.000000
                                        CHANNELS 3 Zrotation Xrotation Yrotation
                                        End Site
                                        {
                                            OFFSET  -2.273050   0.000000   0.000000
                                        }
                                    }
                                }
                            }
                            JOINT RightFinger4
                            {
                                OFFSET  -7.435090   0.000000  -3.252850
                                CHANNELS 3 Zrotation Xrotation Yrotation
                                JOINT RightFinger41
                                {
                                    OFFSET  -3.717550   0.000000   0.000000
                                    CHANNELS 3 Zrotation Xrotation Yrotation
                                    JOINT RightFinger42
                                    {
                                        OFFSET  -1.858760   0.000000   0.000000
                                        CHANNELS 3 Zrotation Xrotation Yrotation
                                        End Site
                                        {
                                            OFFSET  -1.818440   0.000000   0.000000
                                        }
                                    }
                                }
                            }
                        }
                    }
                }
            }
        }
    }
    JOINT LeftHip
    {
        OFFSET   9.783030   0.000000   0.000000
        CHANNELS 3 Zrotation Xrotation Yrotation
        JOINT LeftKnee
        {
            OFFSET   0.000063 -41.789100   0.000608
            CHANNELS 3 Zrotation Xrotation Yrotation
            JOINT LeftAnkle
            {
                OFFSET   0.000048 -41.133200  -0.000184
                CHANNELS 3 Zrotation Xrotation Yrotation
                JOINT LeftToe
                {
                    OFFSET   0.000000  -6.358960  14.674500
                    CHANNELS 3 Zrotation Xrotation Yrotation
                    End Site
                    {
                        OFFSET   0.000000   0.000000   3.913200
                    }
                }
            }
        }
    }
    JOINT RightHip
    {
        OFFSET  -9.783030   0.000000   0.000000
        CHANNELS 3 Zrotation Xrotation Yrotation
        JOINT RightKnee
        {
            OFFSET   0.000071 -41.789100   0.001239
            CHANNELS 3 Zrotation Xrotation Yrotation
            JOINT RightAnkle
            {
                OFFSET   0.000037 -41.133200  -0.000166
                CHANNELS 3 Zrotation Xrotation Yrotation
                JOINT RightToe
                {
                    OFFSET   0.000000  -6.358960  14.674500
                    CHANNELS 3 Zrotation Xrotation Yrotation
                    End Site
                    {
                        OFFSET   0.000000   0.000000   3.913200
                    }
                }
            }
        }
    }
}
MOTION
Frames: 4
Frame Time:   0.016667
  1.971420  89.534300   1.858610  -1.980460  -6.684760  -3.910250   0.990662   2.512640  -0.082026   1.987810   5.023480  -0.207876   0.814871   2.254680  -0.037503   1.344180   4.568990  -0.787096  -2.224700  -0.662656   2.508370 -78.873700  14.277300   3.207560  -2.669390  -7.379700 -14.450900  12.574600 -13.223600   3.569280  35.446700  29.765600 -73.827800 -22.753700   0.008132   0.012685  -6.371280   0.012277   0.008057 -21.791100   4.735230 -11.666500 -18.225100  -0.011023  -0.000445 -12.757600   0.001813  -0.013459 -24.750000   1.564170  -3.388580 -24.796300  -0.003502  -0.002589 -16.514300  -0.001705  -0.002345 -23.998600   1.310330  -2.953250 -24.032300  -0.000610  -0.000729 -16.005500  -0.001050  -0.000581 -26.127500   1.419160  -2.902320 -39.245000  -0.005349   0.000244 -26.137100   0.003061  -0.011521   5.133100   0.111795   3.599790  74.645400   5.687020  -5.616800   0.128797 -10.831000  10.353700  -8.488180  -0.388120   2.253300 -40.680600  33.742400  75.354700  20.361500  -0.002713  -0.000303   5.180750  -0.001558  -0.001818  21.860600   3.901690   9.625980  18.154900  -0.003383   0.001821  12.708400  -0.002145   0.001732  26.203000   2.811040   5.690800  26.342800  -0.003832   0.003321  17.544300  -0.002781   0.002893  21.638700   0.485926   1.224540  21.643900  -0.002146   0.000000  14.414800  -0.001556   0.000254  28.713000   0.633053   1.155350  43.079200  -0.003546   0.006634  28.690700  -0.000302   0.004089   0.031453   9.516680   3.130130   1.188580   0.087568   5.395750  -0.876796  -4.204860   1.492500   0.000000   0.000000   0.000000   4.148600   7.111420  -0.248715  -1.168790   3.895100  -9.239660  -1.835170  -5.462290  -2.030100  -0.000000   0.000000   0.000000
  1.971440  89.534300   1.850760  -1.987570  -6.686320  -3.924220   0.990746   2.526650  -0.076616   1.987840   5.051580  -0.197299   0.823932   2.266890  -0.037486   1.359140   4.593700  -0.753251  -2.227580  -0.662619   2.485560 -78.854500  14.287700   3.199870  -2.679040  -7.393650 -14.442100  12.593100 -13.223400   3.542950  35.459700  29.826300 -73.879600 -22.754100   0.008131   0.012671  -6.374280   0.012269   0.008056 -21.779100   4.733450 -11.667200 -18.215000  -0.011024  -0.000434 -12.750600   0.001814  -0.013467 -24.729900   1.569150  -3.403050 -24.776300  -0.003495  -0.002577 -16.501100  -0.001706  -0.002337 -23.974200   1.313500  -2.958170 -24.008000  -0.000600  -0.000712 -15.989400  -0.001054  -0.000570 -26.106000   1.422600  -2.907180 -39.212800  -0.005348   0.000259 -26.115800   0.003058  -0.011521   5.149540   0.075591   3.606910  74.642600   5.711000  -5.624990   0.145084 -10.870900  10.333700  -8.463960  -0.320132   2.241980 -40.783400  33.793800  75.364100  20.232500  -0.002735  -0.000301   5.116240  -0.001558  -0.001807  21.854800   3.893530   9.612720  18.149300  -0.003371   0.001805  12.704500  -0.002137   0.001718  26.185800   2.813370   5.699830  26.326000  -0.003826   0.003309  17.533100  -0.002774   0.002885  21.623800   0.494793   1.247920  21.629200  -0.002137  -0.000033  14.405000  -0.001548   0.000258  28.689300   0.644541   1.177570  43.044000  -0.003547   0.006636  28.667300  -0.000308   0.004088   0.035877   9.530260   3.130180   1.189960   0.062974   5.399920  -0.875875  -4.191010   1.500560   0.000000   0.000000   0.000000   4.153500   7.104190  -0.276016  -1.170600   3.895700  -9.215770  -1.833300  -5.457820  -2.011810   0.000000   0.000000   0.000000
  1.971450  89.534300   1.838610  -1.998390  -6.691530  -3.944370   0.990718   2.551530  -0.068432   1.987450   5.101480  -0.181353   0.837480   2.289980  -0.037454   1.381590   4.640430  -0.685507  -2.235880  -0.662586   2.451020 -78.822000  14.307900   3.185760  -2.694560  -7.416260 -14.430200  12.630100 -13.220700   3.499670  35.466700  29.904100 -73.966000 -22.754600   0.008124   0.012649  -6.377290   0.012250   0.008052 -21.766700   4.731590 -11.672100 -18.205000  -0.011024  -0.000411 -12.743500   0.001818  -0.013484 -24.709100   1.580990  -3.431330 -24.756400  -0.003482  -0.002547 -16.487800  -0.001708  -0.002316 -23.949500   1.320600  -2.970270 -23.983800  -0.000573  -0.000673 -15.973200  -0.001063  -0.000540 -26.084100   1.430380  -2.919020 -39.180700  -0.005342   0.000298 -26.094400   0.003049  -0.011521   5.176090   0.014022   3.625550  74.628800   5.734980  -5.633490   0.169825 -10.942900  10.301600  -8.431810  -0.182782   2.224710 -40.973200  33.886700  75.379300  20.032200  -0.002772  -0.000288   5.016090  -0.001558  -0.001773  21.833400   3.885360   9.599470  18.130700  -0.003338   0.001762  12.691500  -0.002120   0.001682  26.150800   2.821020   5.724110  26.291900  -0.003811   0.003277  17.510400  -0.002757   0.002863  21.595600   0.511013   1.290790  21.601400  -0.002113  -0.000094  14.386500  -0.001534   0.000261  28.651900   0.665717   1.218250  42.988500  -0.003551   0.006643  28.630300  -0.000325   0.004087   0.044617   9.543830   3.130130   1.191340   0.038380   5.407090  -0.874958  -4.177170   1.508620  -0.000000   0.000000  -0.000000   4.160600   7.096950  -0.312962  -1.173060   3.896600  -9.181800  -1.831260  -5.450220  -1.991330   0.000000   0.000000   0.000000
  1.971280  89.534200   1.830760  -2.004360  -6.701460  -3.953640   0.990392   2.575440  -0.063617   1.986640   5.149380  -0.172088   0.844919   2.312820  -0.037407   1.394050   4.686750  -0.609292  -2.250690  -0.671096   2.430170 -78.793100  14.328200   3.174580  -2.707080  -7.430580 -14.428400  12.678600 -13.212100   3.472370  35.421000  29.937300 -74.034600 -22.741900   0.008092   0.012633  -6.370950   0.012220   0.008027 -21.805800   4.758020 -11.711300 -18.240900  -0.011024  -0.000382 -12.768700   0.001826  -0.013510 -24.746100   1.603460  -3.472140 -24.794900  -0.003466  -0.002501 -16.513500  -0.001710  -0.002284 -23.970800   1.333200  -2.994070 -24.005700  -0.000534  -0.000615 -15.987800  -0.001075  -0.000493 -26.111800   1.444340  -2.942120 -39.223500  -0.005330   0.000357 -26.122900   0.003034  -0.011522   5.195570  -0.039563   3.655680  74.601900   5.724180  -5.633750   0.186644 -11.015700  10.283300  -8.422730  -0.018255   2.212260 -41.191400  33.988300  75.393600  19.876000  -0.002804  -0.000245   4.938010  -0.001571  -0.001711  21.784800   3.890960   9.632610  18.092100  -0.003280   0.001691  12.664500  -0.002099   0.001625  26.099100   2.836060   5.766590  26.242800  -0.003789   0.003226  17.477700  -0.002730   0.002827  21.557800   0.526504   1.332370  21.563900  -0.002078  -0.000154  14.361500  -0.001524   0.000227  28.620700   0.686274   1.257580  42.942200  -0.003556   0.006655  28.599500  -0.000351   0.004084   0.054398   9.536400   3.129720   1.190510   0.068277   5.413470  -0.878926  -4.193690   1.507370  -0.000000   0.000000   0.000000   4.163770   7.101420  -0.322423  -1.171870   3.897190  -9.165570  -1.832070  -5.443820  -1.989860  -0.000000   0.000000   0.000000
